<svg xmlns="http://www.w3.org/2000/svg" width="900" height="436" viewBox="0 0 900 436" font-family="Helvetica, Arial, sans-serif">
<rect width="900" height="436" fill="#0e1117"/>
<text x="24" y="34" fill="#e6e6e6" font-size="20" font-weight="bold">FitNova Dashboard — Home / Executive Overview</text>
<text x="24" y="56" fill="#9aa0a6" font-size="12">Data-driven layout render (not a literal browser screenshot) — see docs/screenshots/README.md</text>
<rect x="24" y="80" width="200" height="90" rx="10" fill="#1c1f26" stroke="#2d3139"/>
<text x="40" y="110" fill="#9aa0a6" font-size="12">Total calls</text>
<text x="40" y="144" fill="#e6e6e6" font-size="28" font-weight="bold">8</text>
<rect x="244" y="80" width="200" height="90" rx="10" fill="#1c1f26" stroke="#2d3139"/>
<text x="260" y="110" fill="#9aa0a6" font-size="12">Scored calls</text>
<text x="260" y="144" fill="#e6e6e6" font-size="28" font-weight="bold">0</text>
<rect x="464" y="80" width="200" height="90" rx="10" fill="#1c1f26" stroke="#2d3139"/>
<text x="480" y="110" fill="#9aa0a6" font-size="12">Avg overall quality</text>
<text x="480" y="144" fill="#e6e6e6" font-size="28" font-weight="bold">—</text>
<rect x="684" y="80" width="200" height="90" rx="10" fill="#1c1f26" stroke="#2d3139"/>
<text x="700" y="110" fill="#9aa0a6" font-size="12">Validated issues</text>
<text x="700" y="144" fill="#e6e6e6" font-size="28" font-weight="bold">0</text>
<text x="24" y="220" fill="#e6e6e6" font-size="15" font-weight="bold">Calls by type</text>
<text x="24" y="254" fill="#9aa0a6" font-size="12">SALES</text>
<rect x="220" y="240" width="320" height="16" rx="3" fill="#4f8df5"/>
<text x="548" y="253" fill="#e6e6e6" font-size="12">3</text>
<text x="24" y="280" fill="#9aa0a6" font-size="12">INTERNAL</text>
<rect x="220" y="266" width="106" height="16" rx="3" fill="#4f8df5"/>
<text x="334" y="279" fill="#e6e6e6" font-size="12">1</text>
<text x="24" y="306" fill="#9aa0a6" font-size="12">NO_SPEECH</text>
<rect x="220" y="292" width="106" height="16" rx="3" fill="#4f8df5"/>
<text x="334" y="305" fill="#e6e6e6" font-size="12">1</text>
<text x="24" y="332" fill="#9aa0a6" font-size="12">PENDING_METADATA</text>
<rect x="220" y="318" width="106" height="16" rx="3" fill="#4f8df5"/>
<text x="334" y="331" fill="#e6e6e6" font-size="12">1</text>
<text x="24" y="358" fill="#9aa0a6" font-size="12">UNSUPPORTED_LANGUAGE</text>
<rect x="220" y="344" width="106" height="16" rx="3" fill="#4f8df5"/>
<text x="334" y="357" fill="#e6e6e6" font-size="12">1</text>
<text x="24" y="384" fill="#9aa0a6" font-size="12">WRONG_NUMBER</text>
<rect x="220" y="370" width="106" height="16" rx="3" fill="#4f8df5"/>
<text x="334" y="383" fill="#e6e6e6" font-size="12">1</text>
<text x="24" y="426" fill="#e6e6e6" font-size="15" font-weight="bold">Queue health</text>
<text x="24" y="448" fill="#9aa0a6" font-size="12">pending: 0, in_progress: 0, completed: 8, failed: 0</text>
</svg>