<?xml version="1.0" encoding="UTF-8" standalone="no"?>
<!DOCTYPE svg PUBLIC "-//W3C//DTD SVG 1.1//EN"
 "http://www.w3.org/Graphics/SVG/1.1/DTD/svg11.dtd">
<!-- Generated by graphviz version 2.43.0 (0)
 -->
<!-- Title: FitNovaArchitecture Pages: 1 -->
<svg width="829pt" height="1022pt"
 viewBox="0.00 0.00 829.04 1021.60" xmlns="http://www.w3.org/2000/svg" xmlns:xlink="http://www.w3.org/1999/xlink">
<g id="graph0" class="graph" transform="scale(1 1) rotate(0) translate(28.8 992.8)">
<title>FitNovaArchitecture</title>
<polygon fill="white" stroke="transparent" points="-28.8,28.8 -28.8,-992.8 800.24,-992.8 800.24,28.8 -28.8,28.8"/>
<text text-anchor="middle" x="385.72" y="-949.6" font-family="Helvetica,sans-Serif" font-size="13.00">FitNova Sales Call Intelligence — Architecture</text>
<text text-anchor="middle" x="385.72" y="-935.6" font-family="Helvetica,sans-Serif" font-size="13.00">(rendered from docs/01_PHASE1_DESIGN.md Section 4.4)</text>
<g id="clust2" class="cluster">
<title>cluster_ingest</title>
<path fill="none" stroke="#94a3b8" d="M287,-718C287,-718 455,-718 455,-718 461,-718 467,-724 467,-730 467,-730 467,-853 467,-853 467,-859 461,-865 455,-865 455,-865 287,-865 287,-865 281,-865 275,-859 275,-853 275,-853 275,-730 275,-730 275,-724 281,-718 287,-718"/>
<text text-anchor="middle" x="371" y="-850.6" font-family="Helvetica,sans-Serif" font-size="13.00">Ingestion Layer</text>
</g>
<g id="clust3" class="cluster">
<title>cluster_speech</title>
<path fill="none" stroke="#94a3b8" d="M181,-387C181,-387 351,-387 351,-387 357,-387 363,-393 363,-399 363,-399 363,-668 363,-668 363,-674 357,-680 351,-680 351,-680 181,-680 181,-680 175,-680 169,-674 169,-668 169,-668 169,-399 169,-399 169,-393 175,-387 181,-387"/>
<text text-anchor="middle" x="266" y="-665.6" font-family="Helvetica,sans-Serif" font-size="13.00">Speech Pipeline</text>
</g>
<g id="clust4" class="cluster">
<title>cluster_classify</title>
<path fill="none" stroke="#94a3b8" d="M145,-274C145,-274 387,-274 387,-274 393,-274 399,-280 399,-286 399,-286 399,-356 399,-356 399,-362 393,-368 387,-368 387,-368 145,-368 145,-368 139,-368 133,-362 133,-356 133,-356 133,-286 133,-286 133,-280 139,-274 145,-274"/>
<text text-anchor="middle" x="266" y="-353.6" font-family="Helvetica,sans-Serif" font-size="13.00">Call Classification</text>
</g>
<g id="clust5" class="cluster">
<title>cluster_ai</title>
<path fill="none" stroke="#94a3b8" d="M20,-82C20,-82 368,-82 368,-82 374,-82 380,-88 380,-94 380,-94 380,-234 380,-234 380,-240 374,-246 368,-246 368,-246 20,-246 20,-246 14,-246 8,-240 8,-234 8,-234 8,-94 8,-94 8,-88 14,-82 20,-82"/>
<text text-anchor="middle" x="194" y="-231.6" font-family="Helvetica,sans-Serif" font-size="13.00">AI Analysis Engine (Ollama + Qwen3)</text>
</g>
<g id="clust6" class="cluster">
<title>cluster_surface</title>
<path fill="none" stroke="#94a3b8" d="M438,-172C438,-172 746,-172 746,-172 752,-172 758,-178 758,-184 758,-184 758,-346 758,-346 758,-352 752,-358 746,-358 746,-358 438,-358 438,-358 432,-358 426,-352 426,-346 426,-346 426,-184 426,-184 426,-178 432,-172 438,-172"/>
<text text-anchor="middle" x="592" y="-343.6" font-family="Helvetica,sans-Serif" font-size="13.00">Surfacing</text>
</g>
<!-- s1 -->
<g id="node1" class="node">
<title>s1</title>
<path fill="#f1f5f9" stroke="#334155" d="M300,-928C300,-928 232,-928 232,-928 226,-928 220,-922 220,-916 220,-916 220,-904 220,-904 220,-898 226,-892 232,-892 232,-892 300,-892 300,-892 306,-892 312,-898 312,-904 312,-904 312,-916 312,-916 312,-922 306,-928 300,-928"/>
<text text-anchor="middle" x="266" y="-907.2" font-family="Helvetica,sans-Serif" font-size="11.00">Folder of Files</text>
</g>
<!-- adp -->
<g id="node4" class="node">
<title>adp</title>
<path fill="#f1f5f9" stroke="#334155" d="M447.5,-835C447.5,-835 294.5,-835 294.5,-835 288.5,-835 282.5,-829 282.5,-823 282.5,-823 282.5,-811 282.5,-811 282.5,-805 288.5,-799 294.5,-799 294.5,-799 447.5,-799 447.5,-799 453.5,-799 459.5,-805 459.5,-811 459.5,-811 459.5,-823 459.5,-823 459.5,-829 453.5,-835 447.5,-835"/>
<text text-anchor="middle" x="371" y="-820.2" font-family="Helvetica,sans-Serif" font-size="11.00">IngestionAdapter</text>
<text text-anchor="middle" x="371" y="-808.2" font-family="Helvetica,sans-Serif" font-size="11.00">normalizes to RawCallRecord</text>
</g>
<!-- s1&#45;&gt;adp -->
<g id="edge1" class="edge">
<title>s1&#45;&gt;adp</title>
<path fill="none" stroke="#64748b" d="M285.75,-891.88C302.03,-877.78 325.3,-857.6 343.42,-841.9"/>
<polygon fill="#64748b" stroke="#64748b" points="346.07,-844.23 351.34,-835.04 341.49,-838.94 346.07,-844.23"/>
</g>
<!-- s2 -->
<g id="node2" class="node">
<title>s2</title>
<path fill="#f1f5f9" stroke="#334155" d="M399.5,-928C399.5,-928 342.5,-928 342.5,-928 336.5,-928 330.5,-922 330.5,-916 330.5,-916 330.5,-904 330.5,-904 330.5,-898 336.5,-892 342.5,-892 342.5,-892 399.5,-892 399.5,-892 405.5,-892 411.5,-898 411.5,-904 411.5,-904 411.5,-916 411.5,-916 411.5,-922 405.5,-928 399.5,-928"/>
<text text-anchor="middle" x="371" y="-907.2" font-family="Helvetica,sans-Serif" font-size="11.00">CRM Export</text>
</g>
<!-- s2&#45;&gt;adp -->
<g id="edge2" class="edge">
<title>s2&#45;&gt;adp</title>
<path fill="none" stroke="#64748b" d="M371,-891.88C371,-878.79 371,-860.48 371,-845.36"/>
<polygon fill="#64748b" stroke="#64748b" points="374.5,-845.04 371,-835.04 367.5,-845.04 374.5,-845.04"/>
</g>
<!-- s3 -->
<g id="node3" class="node">
<title>s3</title>
<path fill="none" stroke="#334155" stroke-dasharray="5,2" d="M532.5,-928C532.5,-928 441.5,-928 441.5,-928 435.5,-928 429.5,-922 429.5,-916 429.5,-916 429.5,-904 429.5,-904 429.5,-898 435.5,-892 441.5,-892 441.5,-892 532.5,-892 532.5,-892 538.5,-892 544.5,-898 544.5,-904 544.5,-904 544.5,-916 544.5,-916 544.5,-922 538.5,-928 532.5,-928"/>
<text text-anchor="middle" x="487" y="-913.2" font-family="Helvetica,sans-Serif" font-size="11.00">Telephony / Dialer</text>
<text text-anchor="middle" x="487" y="-901.2" font-family="Helvetica,sans-Serif" font-size="11.00">(future adapter)</text>
</g>
<!-- s3&#45;&gt;adp -->
<g id="edge3" class="edge">
<title>s3&#45;&gt;adp</title>
<path fill="none" stroke="#64748b" stroke-dasharray="5,2" d="M465.18,-891.88C446.95,-877.58 420.79,-857.06 400.66,-841.27"/>
<polygon fill="#64748b" stroke="#64748b" points="402.75,-838.46 392.72,-835.04 398.43,-843.97 402.75,-838.46"/>
</g>
<!-- hash -->
<g id="node5" class="node">
<title>hash</title>
<path fill="#fecaca" stroke="#991b1b" d="M421.5,-762C421.5,-762 320.5,-762 320.5,-762 314.5,-762 308.5,-756 308.5,-750 308.5,-750 308.5,-738 308.5,-738 308.5,-732 314.5,-726 320.5,-726 320.5,-726 421.5,-726 421.5,-726 427.5,-726 433.5,-732 433.5,-738 433.5,-738 433.5,-750 433.5,-750 433.5,-756 427.5,-762 421.5,-762"/>
<text text-anchor="middle" x="371" y="-747.2" font-family="Helvetica,sans-Serif" font-size="11.00">Content&#45;hash check</text>
<text text-anchor="middle" x="371" y="-735.2" font-family="Helvetica,sans-Serif" font-size="11.00">(idempotency gate)</text>
</g>
<!-- adp&#45;&gt;hash -->
<g id="edge4" class="edge">
<title>adp&#45;&gt;hash</title>
<path fill="none" stroke="#64748b" d="M371,-798.81C371,-790.79 371,-781.05 371,-772.07"/>
<polygon fill="#64748b" stroke="#64748b" points="374.5,-772.03 371,-762.03 367.5,-772.03 374.5,-772.03"/>
</g>
<!-- asr -->
<g id="node6" class="node">
<title>asr</title>
<path fill="#f1f5f9" stroke="#334155" d="M321.5,-650C321.5,-650 250.5,-650 250.5,-650 244.5,-650 238.5,-644 238.5,-638 238.5,-638 238.5,-626 238.5,-626 238.5,-620 244.5,-614 250.5,-614 250.5,-614 321.5,-614 321.5,-614 327.5,-614 333.5,-620 333.5,-626 333.5,-626 333.5,-638 333.5,-638 333.5,-644 327.5,-650 321.5,-650"/>
<text text-anchor="middle" x="286" y="-635.2" font-family="Helvetica,sans-Serif" font-size="11.00">Transcription</text>
<text text-anchor="middle" x="286" y="-623.2" font-family="Helvetica,sans-Serif" font-size="11.00">faster&#45;whisper</text>
</g>
<!-- hash&#45;&gt;asr -->
<g id="edge5" class="edge">
<title>hash&#45;&gt;asr</title>
<path fill="none" stroke="#64748b" d="M357.72,-725.81C343.68,-707.65 321.41,-678.82 305.41,-658.12"/>
<polygon fill="#64748b" stroke="#64748b" points="308.07,-655.84 299.19,-650.07 302.53,-660.12 308.07,-655.84"/>
<text text-anchor="middle" x="361.5" y="-695.8" font-family="Helvetica,sans-Serif" font-size="9.00">new call</text>
</g>
<!-- skip -->
<g id="node16" class="node">
<title>skip</title>
<path fill="#e2e8f0" stroke="#334155" d="M454.5,-650C454.5,-650 383.5,-650 383.5,-650 377.5,-650 371.5,-644 371.5,-638 371.5,-638 371.5,-626 371.5,-626 371.5,-620 377.5,-614 383.5,-614 383.5,-614 454.5,-614 454.5,-614 460.5,-614 466.5,-620 466.5,-626 466.5,-626 466.5,-638 466.5,-638 466.5,-644 460.5,-650 454.5,-650"/>
<text text-anchor="middle" x="419" y="-635.2" font-family="Helvetica,sans-Serif" font-size="11.00">Skip — logged</text>
<text text-anchor="middle" x="419" y="-623.2" font-family="Helvetica,sans-Serif" font-size="11.00">as duplicate</text>
</g>
<!-- hash&#45;&gt;skip -->
<g id="edge6" class="edge">
<title>hash&#45;&gt;skip</title>
<path fill="none" stroke="#64748b" d="M378.5,-725.81C386.25,-708.05 398.45,-680.1 407.43,-659.51"/>
<polygon fill="#64748b" stroke="#64748b" points="410.76,-660.63 411.55,-650.07 404.35,-657.83 410.76,-660.63"/>
<text text-anchor="middle" x="436" y="-700.8" font-family="Helvetica,sans-Serif" font-size="9.00">duplicate,</text>
<text text-anchor="middle" x="436" y="-690.8" font-family="Helvetica,sans-Serif" font-size="9.00">already processed</text>
</g>
<!-- dia -->
<g id="node7" class="node">
<title>dia</title>
<path fill="#f1f5f9" stroke="#334155" d="M340.5,-577C340.5,-577 203.5,-577 203.5,-577 197.5,-577 191.5,-571 191.5,-565 191.5,-565 191.5,-553 191.5,-553 191.5,-547 197.5,-541 203.5,-541 203.5,-541 340.5,-541 340.5,-541 346.5,-541 352.5,-547 352.5,-553 352.5,-553 352.5,-565 352.5,-565 352.5,-571 346.5,-577 340.5,-577"/>
<text text-anchor="middle" x="272" y="-562.2" font-family="Helvetica,sans-Serif" font-size="11.00">Diarization</text>
<text text-anchor="middle" x="272" y="-550.2" font-family="Helvetica,sans-Serif" font-size="11.00">pyannote OR fallback VAD</text>
</g>
<!-- asr&#45;&gt;dia -->
<g id="edge7" class="edge">
<title>asr&#45;&gt;dia</title>
<path fill="none" stroke="#64748b" d="M282.61,-613.81C281.03,-605.79 279.11,-596.05 277.34,-587.07"/>
<polygon fill="#64748b" stroke="#64748b" points="280.73,-586.16 275.36,-577.03 273.86,-587.52 280.73,-586.16"/>
</g>
<!-- norm -->
<g id="node8" class="node">
<title>norm</title>
<path fill="#f1f5f9" stroke="#334155" d="M343,-504C343,-504 189,-504 189,-504 183,-504 177,-498 177,-492 177,-492 177,-480 177,-480 177,-474 183,-468 189,-468 189,-468 343,-468 343,-468 349,-468 355,-474 355,-480 355,-480 355,-492 355,-492 355,-498 349,-504 343,-504"/>
<text text-anchor="middle" x="266" y="-489.2" font-family="Helvetica,sans-Serif" font-size="11.00">Transcript Normalization</text>
<text text-anchor="middle" x="266" y="-477.2" font-family="Helvetica,sans-Serif" font-size="11.00">speaker labels + timestamps</text>
</g>
<!-- dia&#45;&gt;norm -->
<g id="edge8" class="edge">
<title>dia&#45;&gt;norm</title>
<path fill="none" stroke="#64748b" d="M270.55,-540.81C269.87,-532.79 269.05,-523.05 268.29,-514.07"/>
<polygon fill="#64748b" stroke="#64748b" points="271.77,-513.7 267.44,-504.03 264.79,-514.29 271.77,-513.7"/>
</g>
<!-- pii -->
<g id="node9" class="node">
<title>pii</title>
<path fill="#f1f5f9" stroke="#334155" d="M331.5,-431C331.5,-431 200.5,-431 200.5,-431 194.5,-431 188.5,-425 188.5,-419 188.5,-419 188.5,-407 188.5,-407 188.5,-401 194.5,-395 200.5,-395 200.5,-395 331.5,-395 331.5,-395 337.5,-395 343.5,-401 343.5,-407 343.5,-407 343.5,-419 343.5,-419 343.5,-425 337.5,-431 331.5,-431"/>
<text text-anchor="middle" x="266" y="-416.2" font-family="Helvetica,sans-Serif" font-size="11.00">PII Redaction</text>
<text text-anchor="middle" x="266" y="-404.2" font-family="Helvetica,sans-Serif" font-size="11.00">(before LLM ever sees it)</text>
</g>
<!-- norm&#45;&gt;pii -->
<g id="edge9" class="edge">
<title>norm&#45;&gt;pii</title>
<path fill="none" stroke="#64748b" d="M266,-467.81C266,-459.79 266,-450.05 266,-441.07"/>
<polygon fill="#64748b" stroke="#64748b" points="269.5,-441.03 266,-431.03 262.5,-441.03 269.5,-441.03"/>
</g>
<!-- cls -->
<g id="node10" class="node">
<title>cls</title>
<path fill="#f1f5f9" stroke="#334155" d="M379,-338C379,-338 153,-338 153,-338 147,-338 141,-332 141,-326 141,-326 141,-294 141,-294 141,-288 147,-282 153,-282 153,-282 379,-282 379,-282 385,-282 391,-288 391,-294 391,-294 391,-326 391,-326 391,-332 385,-338 379,-338"/>
<text text-anchor="middle" x="266" y="-325.2" font-family="Helvetica,sans-Serif" font-size="11.00">call_type detector</text>
<text text-anchor="middle" x="266" y="-313.2" font-family="Helvetica,sans-Serif" font-size="11.00">SALES / WRONG_NUMBER / INTERNAL /</text>
<text text-anchor="middle" x="266" y="-301.2" font-family="Helvetica,sans-Serif" font-size="11.00">NO_SPEECH / UNSUPPORTED_LANGUAGE /</text>
<text text-anchor="middle" x="266" y="-289.2" font-family="Helvetica,sans-Serif" font-size="11.00">PENDING_METADATA</text>
</g>
<!-- pii&#45;&gt;cls -->
<g id="edge10" class="edge">
<title>pii&#45;&gt;cls</title>
<path fill="none" stroke="#64748b" d="M266,-394.87C266,-382.12 266,-364.25 266,-348.28"/>
<polygon fill="#64748b" stroke="#64748b" points="269.5,-348.13 266,-338.13 262.5,-348.13 269.5,-348.13"/>
</g>
<!-- score -->
<g id="node11" class="node">
<title>score</title>
<path fill="#ddd6fe" stroke="#5b21b6" d="M129.5,-216C129.5,-216 28.5,-216 28.5,-216 22.5,-216 16.5,-210 16.5,-204 16.5,-204 16.5,-192 16.5,-192 16.5,-186 22.5,-180 28.5,-180 28.5,-180 129.5,-180 129.5,-180 135.5,-180 141.5,-186 141.5,-192 141.5,-192 141.5,-204 141.5,-204 141.5,-210 135.5,-216 129.5,-216"/>
<text text-anchor="middle" x="79" y="-201.2" font-family="Helvetica,sans-Serif" font-size="11.00">Scoring Engine</text>
<text text-anchor="middle" x="79" y="-189.2" font-family="Helvetica,sans-Serif" font-size="11.00">9 rubric dimensions</text>
</g>
<!-- cls&#45;&gt;score -->
<g id="edge11" class="edge">
<title>cls&#45;&gt;score</title>
<path fill="none" stroke="#64748b" d="M214.57,-281.92C194.54,-271.09 171.51,-258.28 151,-246 138.22,-238.35 124.47,-229.52 112.44,-221.59"/>
<polygon fill="#64748b" stroke="#64748b" points="114.29,-218.62 104.02,-216.01 110.42,-224.46 114.29,-218.62"/>
<text text-anchor="middle" x="202" y="-256.8" font-family="Helvetica,sans-Serif" font-size="9.00">SALES call</text>
</g>
<!-- issue -->
<g id="node12" class="node">
<title>issue</title>
<path fill="#ddd6fe" stroke="#5b21b6" d="M360,-216C360,-216 172,-216 172,-216 166,-216 160,-210 160,-204 160,-204 160,-192 160,-192 160,-186 166,-180 172,-180 172,-180 360,-180 360,-180 366,-180 372,-186 372,-192 372,-192 372,-204 372,-204 372,-210 366,-216 360,-216"/>
<text text-anchor="middle" x="266" y="-201.2" font-family="Helvetica,sans-Serif" font-size="11.00">Issue Detector</text>
<text text-anchor="middle" x="266" y="-189.2" font-family="Helvetica,sans-Serif" font-size="11.00">10&#45;type taxonomy, structured JSON</text>
</g>
<!-- cls&#45;&gt;issue -->
<g id="edge12" class="edge">
<title>cls&#45;&gt;issue</title>
<path fill="none" stroke="#64748b" d="M266,-281.81C266,-265 266,-243.5 266,-226.62"/>
<polygon fill="#64748b" stroke="#64748b" points="269.5,-226.28 266,-216.28 262.5,-226.28 269.5,-226.28"/>
<text text-anchor="middle" x="290" y="-256.8" font-family="Helvetica,sans-Serif" font-size="9.00">SALES call</text>
</g>
<!-- db -->
<g id="node15" class="node">
<title>db</title>
<path fill="#bfdbfe" stroke="#1e40af" d="M475.5,-40C475.5,-42.21 444.35,-44 406,-44 367.65,-44 336.5,-42.21 336.5,-40 336.5,-40 336.5,-4 336.5,-4 336.5,-1.79 367.65,0 406,0 444.35,0 475.5,-1.79 475.5,-4 475.5,-4 475.5,-40 475.5,-40"/>
<path fill="none" stroke="#1e40af" d="M475.5,-40C475.5,-37.79 444.35,-36 406,-36 367.65,-36 336.5,-37.79 336.5,-40"/>
<text text-anchor="middle" x="406" y="-25.2" font-family="Helvetica,sans-Serif" font-size="11.00">fitnova.db</text>
<text text-anchor="middle" x="406" y="-13.2" font-family="Helvetica,sans-Serif" font-size="11.00">(SQLite, SQLAlchemy)</text>
</g>
<!-- cls&#45;&gt;db -->
<g id="edge13" class="edge">
<title>cls&#45;&gt;db</title>
<path fill="none" stroke="#64748b" d="M342.9,-281.99C358.85,-272.94 373.87,-261.15 384,-246 423.12,-187.49 417.94,-100.31 411.53,-54.2"/>
<polygon fill="#64748b" stroke="#64748b" points="414.97,-53.58 410.03,-44.21 408.05,-54.62 414.97,-53.58"/>
<text text-anchor="middle" x="435.5" y="-154.8" font-family="Helvetica,sans-Serif" font-size="9.00">non&#45;sales</text>
</g>
<!-- insight -->
<g id="node14" class="node">
<title>insight</title>
<path fill="#ddd6fe" stroke="#5b21b6" d="M144,-134C144,-134 40,-134 40,-134 34,-134 28,-128 28,-122 28,-122 28,-102 28,-102 28,-96 34,-90 40,-90 40,-90 144,-90 144,-90 150,-90 156,-96 156,-102 156,-102 156,-122 156,-122 156,-128 150,-134 144,-134"/>
<text text-anchor="middle" x="92" y="-121.2" font-family="Helvetica,sans-Serif" font-size="11.00">Insight Generator</text>
<text text-anchor="middle" x="92" y="-109.2" font-family="Helvetica,sans-Serif" font-size="11.00">summary, coaching,</text>
<text text-anchor="middle" x="92" y="-97.2" font-family="Helvetica,sans-Serif" font-size="11.00">next best action</text>
</g>
<!-- score&#45;&gt;insight -->
<g id="edge16" class="edge">
<title>score&#45;&gt;insight</title>
<path fill="none" stroke="#64748b" d="M81.69,-179.6C83.27,-169.41 85.31,-156.25 87.15,-144.32"/>
<polygon fill="#64748b" stroke="#64748b" points="90.64,-144.67 88.71,-134.26 83.72,-143.6 90.64,-144.67"/>
</g>
<!-- valid -->
<g id="node13" class="node">
<title>valid</title>
<path fill="#fecaca" stroke="#991b1b" d="M349,-134C349,-134 209,-134 209,-134 203,-134 197,-128 197,-122 197,-122 197,-102 197,-102 197,-96 203,-90 209,-90 209,-90 349,-90 349,-90 355,-90 361,-96 361,-102 361,-102 361,-122 361,-122 361,-128 355,-134 349,-134"/>
<text text-anchor="middle" x="279" y="-121.2" font-family="Helvetica,sans-Serif" font-size="11.00">Evidence Validator</text>
<text text-anchor="middle" x="279" y="-109.2" font-family="Helvetica,sans-Serif" font-size="11.00">quote must exist verbatim</text>
<text text-anchor="middle" x="279" y="-97.2" font-family="Helvetica,sans-Serif" font-size="11.00">in transcript</text>
</g>
<!-- issue&#45;&gt;valid -->
<g id="edge14" class="edge">
<title>issue&#45;&gt;valid</title>
<path fill="none" stroke="#64748b" d="M268.69,-179.6C270.27,-169.41 272.31,-156.25 274.15,-144.32"/>
<polygon fill="#64748b" stroke="#64748b" points="277.64,-144.67 275.71,-134.26 270.72,-143.6 277.64,-144.67"/>
</g>
<!-- valid&#45;&gt;db -->
<g id="edge15" class="edge">
<title>valid&#45;&gt;db</title>
<path fill="none" stroke="#64748b" d="M301.44,-89.87C311.61,-80.79 324.01,-70.36 336,-62 342.42,-57.52 349.39,-53.13 356.38,-49"/>
<polygon fill="#64748b" stroke="#64748b" points="358.26,-51.95 365.18,-43.92 354.77,-45.89 358.26,-51.95"/>
<text text-anchor="middle" x="364" y="-64.8" font-family="Helvetica,sans-Serif" font-size="9.00">verified only</text>
</g>
<!-- insight&#45;&gt;db -->
<g id="edge17" class="edge">
<title>insight&#45;&gt;db</title>
<path fill="none" stroke="#64748b" d="M156.21,-91.32C166.82,-88.15 177.71,-84.95 188,-82 233.71,-68.91 285.04,-54.98 326.4,-43.95"/>
<polygon fill="#64748b" stroke="#64748b" points="327.39,-47.31 336.15,-41.35 325.59,-40.54 327.39,-47.31"/>
</g>
<!-- api -->
<g id="node17" class="node">
<title>api</title>
<path fill="#f1f5f9" stroke="#334155" d="M661,-328C661,-328 609,-328 609,-328 603,-328 597,-322 597,-316 597,-316 597,-304 597,-304 597,-298 603,-292 609,-292 609,-292 661,-292 661,-292 667,-292 673,-298 673,-304 673,-304 673,-316 673,-316 673,-322 667,-328 661,-328"/>
<text text-anchor="middle" x="635" y="-313.2" font-family="Helvetica,sans-Serif" font-size="11.00">FastAPI</text>
<text text-anchor="middle" x="635" y="-301.2" font-family="Helvetica,sans-Serif" font-size="11.00">REST layer</text>
</g>
<!-- db&#45;&gt;api -->
<g id="edge18" class="edge">
<title>db&#45;&gt;api</title>
<path fill="none" stroke="#64748b" d="M475.55,-27.9C561.73,-38.31 703.94,-70.76 759,-172 774.71,-200.89 776.2,-217.97 759,-246 742.47,-272.95 710.41,-288.81 683.04,-297.88"/>
<polygon fill="#64748b" stroke="#64748b" points="681.72,-294.62 673.2,-300.92 683.79,-301.31 681.72,-294.62"/>
</g>
<!-- cli -->
<g id="node18" class="node">
<title>cli</title>
<path fill="#f1f5f9" stroke="#334155" d="M489.5,-216C489.5,-216 446.5,-216 446.5,-216 440.5,-216 434.5,-210 434.5,-204 434.5,-204 434.5,-192 434.5,-192 434.5,-186 440.5,-180 446.5,-180 446.5,-180 489.5,-180 489.5,-180 495.5,-180 501.5,-186 501.5,-192 501.5,-192 501.5,-204 501.5,-204 501.5,-210 495.5,-216 489.5,-216"/>
<text text-anchor="middle" x="468" y="-195.2" font-family="Helvetica,sans-Serif" font-size="11.00">Typer CLI</text>
</g>
<!-- api&#45;&gt;cli -->
<g id="edge20" class="edge">
<title>api&#45;&gt;cli</title>
<path fill="none" stroke="#64748b" d="M596.88,-293.92C571.24,-282.78 537.43,-266.09 511,-246 502.72,-239.71 494.73,-231.7 487.92,-224.09"/>
<polygon fill="#64748b" stroke="#64748b" points="490.22,-221.38 481.05,-216.08 484.9,-225.94 490.22,-221.38"/>
</g>
<!-- dash -->
<g id="node19" class="node">
<title>dash</title>
<path fill="#f1f5f9" stroke="#334155" d="M738,-216C738,-216 532,-216 532,-216 526,-216 520,-210 520,-204 520,-204 520,-192 520,-192 520,-186 526,-180 532,-180 532,-180 738,-180 738,-180 744,-180 750,-186 750,-192 750,-192 750,-204 750,-204 750,-210 744,-216 738,-216"/>
<text text-anchor="middle" x="635" y="-201.2" font-family="Helvetica,sans-Serif" font-size="11.00">Streamlit Dashboard</text>
<text text-anchor="middle" x="635" y="-189.2" font-family="Helvetica,sans-Serif" font-size="11.00">Director / Team Leader / Advisor views</text>
</g>
<!-- api&#45;&gt;dash -->
<g id="edge19" class="edge">
<title>api&#45;&gt;dash</title>
<path fill="none" stroke="#64748b" d="M635,-291.81C635,-274.21 635,-246.61 635,-226.07"/>
<polygon fill="#64748b" stroke="#64748b" points="638.5,-226.07 635,-216.07 631.5,-226.07 638.5,-226.07"/>
</g>
<!-- rev -->
<g id="node20" class="node">
<title>rev</title>
<path fill="#fef3c7" stroke="#92400e" d="M599,-130C599,-130 479,-130 479,-130 473,-130 467,-124 467,-118 467,-118 467,-106 467,-106 467,-100 473,-94 479,-94 479,-94 599,-94 599,-94 605,-94 611,-100 611,-106 611,-106 611,-118 611,-118 611,-124 605,-130 599,-130"/>
<text text-anchor="middle" x="539" y="-115.2" font-family="Helvetica,sans-Serif" font-size="11.00">Contest / Confirm flag</text>
<text text-anchor="middle" x="539" y="-103.2" font-family="Helvetica,sans-Serif" font-size="11.00">Advisor + Team Leader</text>
</g>
<!-- dash&#45;&gt;rev -->
<g id="edge21" class="edge">
<title>dash&#45;&gt;rev</title>
<path fill="none" stroke="#64748b" d="M615.11,-179.6C600.98,-167.24 581.85,-150.49 566.3,-136.88"/>
<polygon fill="#64748b" stroke="#64748b" points="568.37,-134.05 558.54,-130.1 563.76,-139.31 568.37,-134.05"/>
</g>
<!-- rev&#45;&gt;db -->
<g id="edge22" class="edge">
<title>rev&#45;&gt;db</title>
<path fill="none" stroke="#64748b" d="M513.04,-93.82C494.09,-81.28 468.03,-64.04 446.37,-49.71"/>
<polygon fill="#64748b" stroke="#64748b" points="448.27,-46.77 438,-44.17 444.41,-52.61 448.27,-46.77"/>
</g>
</g>
</svg>
